<svg width="510" height="169" viewBox="0 0 510 169" fill="none" xmlns="http://www.w3.org/2000/svg">
<path d="M509.46 0H0V168.44H509.46V0Z" fill="white"/>
<path d="M108.11 47.3702L108 47.0002C107.25 47.1902 106.49 47.3502 105.71 47.4802L105.01 47.5902L104.24 47.6902L103.46 47.7602C102.94 47.8002 102.41 47.8302 101.87 47.8502H101.03C97.55 47.8185 94.0897 47.3242 90.74 46.3802V46.3802L89.6201 46.0602L89 45.9202L88.74 45.8402L88.4801 45.7602C88.8501 46.1702 89.1901 46.6002 89.4801 47.0302L89.77 47.4002L90.18 47.9802L90.3701 48.2702C90.9778 49.1401 91.5225 50.0525 92 51.0002C92.07 51.1302 92.1301 51.2602 92.1901 51.4002C92.2193 51.4436 92.2428 51.4907 92.2601 51.5402C92.3301 51.6802 92.39 51.8202 92.45 51.9702L92.63 52.3802C92.69 52.5202 92.7501 52.6702 92.8001 52.8102C92.8501 52.9502 92.94 53.1602 93 53.3302C93.06 53.5002 93.14 53.7002 93.2 53.8802C93.32 54.2502 93.4401 54.6302 93.5501 55.0102C93.6601 55.3902 93.74 55.7002 93.82 56.0602L93.9401 56.5902C94.0401 57.0502 94.1201 57.5202 94.1901 57.9902C94.1901 58.1602 94.25 58.3402 94.27 58.5202C94.29 58.7002 94.27 58.9002 94.34 59.1002C94.41 59.3002 94.34 59.3202 94.34 59.4402C94.34 59.5602 94.34 59.7302 94.34 59.8802V60.3302C94.34 60.4902 94.34 60.6502 94.34 60.8102C94.34 60.9702 94.34 61.3102 94.34 61.5702C94.34 61.8302 94.34 62.0302 94.34 62.2502C94.34 62.4702 94.34 62.8202 94.34 63.1002C94.34 63.3802 94.34 63.4802 94.34 63.6602C94.34 63.8402 94.28 64.2602 94.24 64.5502C94.2 64.8402 94.14 65.3302 94.07 65.7202C94.07 65.8502 94.07 65.9802 94 66.1102C93.8688 66.8082 93.702 67.4991 93.5 68.1802C93.5 68.3502 93.4 68.5202 93.35 68.6902L93.17 69.2502C92.94 69.9302 92.68 70.5902 92.39 71.2502L92.21 71.6502C92.21 71.7702 92.09 71.9002 92.03 72.0202L91.82 72.4502C91.76 72.5602 91.7 72.6802 91.64 72.7802C91.58 72.8802 91.47 73.1102 91.38 73.2702C91.29 73.4302 91.2801 73.4502 91.2201 73.5402C91.1601 73.6302 91.05 73.8502 90.95 74.0002C90.85 74.1502 90.62 74.5302 90.45 74.7902L90.1901 75.1802C89.9501 75.5302 89.7001 75.8702 89.4401 76.1802C89.3501 76.3102 89.2501 76.4302 89.1601 76.5502L88.8001 76.9902L88.43 77.4102L88.0501 77.8302C87.9279 77.9741 87.7977 78.111 87.6601 78.2402L87.27 78.6402L86.8601 79.0302C86.0385 79.8117 85.1594 80.5304 84.2301 81.1802L83.77 81.4902C83.62 81.6002 83.4601 81.7002 83.3001 81.8002C83.1401 81.9002 82.69 82.1802 82.38 82.3602L81.88 82.6402C80.162 83.5777 78.3349 84.2998 76.4401 84.7902L75.5 85.0102L74.81 85.1502L74.2601 85.2402H73.93L73.5 85.3002L72.5 85.4102H71.9101H71.31H70.49C67.2495 85.5582 64.0126 85.0477 60.9748 83.9096C57.9371 82.7716 55.1616 81.0295 52.816 78.7886C50.4705 76.5477 48.6036 73.8546 47.328 70.872C46.0525 67.8893 45.3949 64.6791 45.3949 61.4352C45.3949 58.1912 46.0525 54.981 47.328 51.9983C48.6036 49.0157 50.4705 46.3226 52.816 44.0817C55.1616 41.8409 57.9371 40.0988 60.9748 38.9607C64.0126 37.8226 67.2495 37.3121 70.49 37.4602H71.31H71.8601H72.4101C73.1501 37.5302 73.88 37.6102 74.6 37.7402L75 38.0002L75.35 38.0702L75.8601 38.1802H75.9401L76.4801 38.3102L77.0501 38.4702L77.6101 38.6402L78.1501 38.8102C78.6701 38.9902 79.15 39.1802 79.7 39.4002L79.88 39.0502C79.921 39.0358 79.9611 39.0191 80 39.0002C80.65 37.8002 84.52 30.9402 90.75 26.8802C84.8504 23.4274 78.1644 21.5442 71.3301 21.4102H70.4701C59.9089 21.5767 49.8367 25.8889 42.427 33.4163C35.0173 40.9438 30.8644 51.0827 30.8644 61.6452C30.8644 72.2076 35.0173 82.3466 42.427 89.874C49.8367 97.4014 59.9089 101.714 70.4701 101.88H71.2901C77.7299 101.75 84.0445 100.076 89.7029 96.9986C95.3612 93.9209 100.198 89.5295 103.806 84.1938C107.414 78.858 109.688 72.7339 110.437 66.3364C111.186 59.9389 110.388 53.4551 108.11 47.4302V47.3702ZM100.11 34.3702C99.99 34.2402 99.8701 34.1002 99.7401 33.9702L99 34.2002L98.2101 34.4602L97.4801 34.7102C96.4801 35.0602 95.5601 35.4302 94.6601 35.8002L93.99 36.0902L93.34 36.3702L92.09 36.9402L91.49 37.2302C90.17 37.8702 88.98 38.5102 87.95 39.1002L87.59 39.3002L87.3701 39.4302L86.95 39.6802C86.24 40.1002 85.63 40.4802 85.13 40.8102L84.89 40.9702L84.14 41.4802L84 41.5802L83.84 41.6902C84.4 42.0702 84.9501 42.4702 85.4801 42.9002C85.5262 42.9287 85.577 42.949 85.63 42.9602L86.02 43.1302L86.39 43.2702L86.7301 43.4102C86.9801 43.5002 87.2401 43.6102 87.5101 43.7002L88.07 43.9002L88.2 43.9502L89.0401 44.2302L89.93 44.5102L90.5801 44.7002L91.27 44.8902L91.9801 45.0802L92.8701 45.2902L93.46 45.4202L94.46 45.6302C95.11 45.7502 95.7801 45.8602 96.4601 45.9502H96.7L97.28 46.0202H97.7101C98.1901 46.0202 98.71 46.1102 99.16 46.1302H99.94H101.66C103.565 46.0888 105.459 45.8406 107.31 45.3902C105.532 41.3414 103.092 37.6171 100.09 34.3702H100.11ZM93.1101 28.3702C92.8501 28.1902 92.59 28.0102 92.32 27.8402L91.78 28.1702L91.57 28.3102L91.09 28.6402L90.5401 29.0402L90.43 29.1202L90.0101 29.4502C89.6101 29.7602 89.2301 30.0802 88.8601 30.4502L88.39 30.8802C88.06 31.1902 87.74 31.5002 87.39 31.8202L87.1601 32.0502L86.7901 32.4502C86.6501 32.5902 86.51 32.7502 86.38 32.8902C85.94 33.3902 85.52 33.8902 85.13 34.3702L84.75 34.8502L84.4001 35.3102C84.0867 35.7168 83.7967 36.1168 83.53 36.5102L83.2901 36.8602C82.7001 37.7202 82.29 38.4702 81.92 39.0102C81.8893 39.0736 81.8525 39.1339 81.81 39.1902C81.75 39.3102 81.68 39.4202 81.64 39.5102C81.6 39.6002 81.5801 39.6202 81.5501 39.6602C81.5201 39.7002 81.47 39.8002 81.45 39.8502C81.43 39.9002 81.45 39.9002 81.45 39.9102C81.45 39.9202 81.45 39.9102 81.45 39.9102C82.1 39.4902 82.7301 39.0802 83.3701 38.6902L83.9101 38.3702C83.9433 38.3666 83.9768 38.3666 84.0101 38.3702V38.3702C88.4817 35.715 93.3502 33.7939 98.4301 32.6802C96.7792 31.0754 94.9926 29.6166 93.09 28.3202L93.1101 28.3702Z" fill="#F69000"/>
<path d="M70.47 130.69C56.8323 130.729 43.5565 126.304 32.67 118.09C30.9461 116.794 29.8074 114.867 29.5046 112.732C29.2017 110.597 29.7594 108.429 31.055 106.705C32.3506 104.981 34.2779 103.842 36.413 103.54C38.5481 103.237 40.7161 103.794 42.44 105.09C50.5295 111.152 60.3661 114.429 70.475 114.429C80.5839 114.429 90.4204 111.152 98.51 105.09C100.234 103.794 102.402 103.237 104.537 103.54C106.672 103.842 108.599 104.981 109.895 106.705C111.191 108.429 111.748 110.597 111.445 112.732C111.143 114.867 110.004 116.794 108.28 118.09C97.389 126.303 84.1105 130.728 70.47 130.69V130.69Z" fill="#87C64A"/>
<path d="M43.6499 130.32C43.5299 130.32 43.4099 130.32 43.2799 130.32H42.8399C41.5326 130.278 40.2302 130.499 39.0101 130.971C37.79 131.442 36.6771 132.154 35.7376 133.064C34.798 133.974 34.0509 135.064 33.5407 136.268C33.0305 137.472 32.7676 138.767 32.7676 140.075C32.7676 141.383 33.0305 142.678 33.5407 143.882C34.0509 145.086 34.798 146.176 35.7376 147.086C36.6771 147.996 37.79 148.708 39.0101 149.179C40.2302 149.65 41.5326 149.872 42.8399 149.83H43.2799H43.6499C46.0842 149.623 48.352 148.51 50.0047 146.711C51.6574 144.912 52.5746 142.558 52.5746 140.115C52.5746 137.672 51.6574 135.318 50.0047 133.519C48.352 131.72 46.0842 130.607 43.6499 130.4V130.32ZM42.8399 145.72C41.3309 145.72 39.8836 145.12 38.8165 144.053C37.7494 142.986 37.1499 141.539 37.1499 140.03C37.1499 138.521 37.7494 137.074 38.8165 136.006C39.8836 134.939 41.3309 134.34 42.8399 134.34C43.1111 134.34 43.3818 134.36 43.6499 134.4H43.8999H44.1199C44.8762 134.591 45.5868 134.931 46.2099 135.4L46.3499 135.51C46.4299 135.58 46.5099 135.64 46.5899 135.72C46.6545 135.768 46.7148 135.821 46.7699 135.88L46.9499 136.06C47.0118 136.118 47.0686 136.182 47.1199 136.25C47.1786 136.309 47.2321 136.372 47.2799 136.44C47.3381 136.5 47.3885 136.567 47.4299 136.64C47.63 136.906 47.8041 137.191 47.9499 137.49C47.9875 137.565 48.0208 137.642 48.0499 137.72C48.1924 138.042 48.3029 138.377 48.3799 138.72C48.3856 138.8 48.3856 138.88 48.3799 138.96V139.15V139.36C48.3799 139.57 48.3799 139.78 48.3799 140C48.3799 140.22 48.3799 140.44 48.3799 140.65V140.86V141.05C48.3848 141.13 48.3848 141.21 48.3799 141.29C48.3029 141.633 48.1924 141.968 48.0499 142.29C48.0208 142.368 47.9875 142.445 47.9499 142.52C47.8018 142.818 47.6278 143.102 47.4299 143.37C47.3885 143.443 47.3381 143.51 47.2799 143.57C47.2321 143.638 47.1786 143.701 47.1199 143.76L46.9999 144C46.9451 144.065 46.8848 144.125 46.8199 144.18C46.7648 144.238 46.7045 144.292 46.6399 144.34L46.3999 144.54L46.2599 144.65C45.6389 145.123 44.9276 145.463 44.1699 145.65H43.9499H43.6999C43.4149 145.69 43.1277 145.713 42.8399 145.72V145.72Z" fill="#252525"/>
<path d="M99.73 130.32H99.37H98.92C96.3869 130.401 93.9847 131.464 92.2215 133.285C90.4583 135.105 89.4724 137.54 89.4724 140.075C89.4724 142.609 90.4583 145.044 92.2215 146.865C93.9847 148.685 96.3869 149.749 98.92 149.83H99.37H99.73C102.164 149.623 104.432 148.51 106.085 146.711C107.738 144.912 108.655 142.558 108.655 140.115C108.655 137.672 107.738 135.318 106.085 133.519C104.432 131.72 102.164 130.607 99.73 130.4V130.32ZM98.92 145.72C97.411 145.72 95.9637 145.12 94.8966 144.053C93.8295 142.986 93.23 141.539 93.23 140.03C93.23 138.521 93.8295 137.073 94.8966 136.006C95.9637 134.939 97.411 134.34 98.92 134.34C99.1912 134.339 99.462 134.359 99.73 134.4H99.99H100.21C100.964 134.589 101.672 134.929 102.29 135.4L102.44 135.51L102.68 135.72L102.86 135.88L103.04 136.06C103.102 136.118 103.159 136.182 103.21 136.25C103.268 136.306 103.319 136.37 103.36 136.44C103.419 136.502 103.472 136.569 103.52 136.64C103.717 136.906 103.888 137.191 104.03 137.49C104.071 137.564 104.107 137.641 104.14 137.72C104.282 138.042 104.393 138.376 104.47 138.72C104.47 138.8 104.47 138.87 104.47 138.96C104.475 139.023 104.475 139.087 104.47 139.15C104.475 139.22 104.475 139.29 104.47 139.36C104.485 139.573 104.485 139.787 104.47 140C104.485 140.216 104.485 140.433 104.47 140.65C104.475 140.72 104.475 140.79 104.47 140.86C104.475 140.923 104.475 140.987 104.47 141.05C104.47 141.13 104.47 141.21 104.47 141.29C104.393 141.633 104.282 141.968 104.14 142.29C104.107 142.368 104.071 142.445 104.03 142.52C103.885 142.818 103.715 143.102 103.52 143.37C103.472 143.441 103.419 143.508 103.36 143.57C103.319 143.64 103.268 143.704 103.21 143.76L103 144L102.82 144.18L102.64 144.34L102.4 144.54L102.25 144.65C101.634 145.124 100.925 145.465 100.17 145.65H99.95H99.69C99.4349 145.687 99.1778 145.711 98.92 145.72V145.72Z" fill="#252525"/>
<path d="M128 21.8301V22.0001C127.93 24.6001 126.74 32.8901 115.68 41.5001C113.232 43.4072 110.406 44.7708 107.39 45.5001C105.539 45.9505 103.645 46.1987 101.74 46.2401H100H99.22C98.73 46.2401 98.22 46.1801 97.77 46.1301H97.34L96.75 46.0001H96.51C95.82 45.9101 95.15 45.8001 94.51 45.6801L93.51 45.4701L92.92 45.3401L92 45.0901L91.29 44.9001L90.6 44.7101L90 44.5201L89.11 44.2401L88.22 44.0001L88.09 43.9501L87.53 43.7501C87.26 43.6601 87 43.5501 86.75 43.4601L86.41 43.3201L86 43.1301L85.62 43.0001C85.5669 42.9889 85.5162 42.9686 85.47 42.9401V42.9401L85.22 42.8401L84.86 42.6801L84.7 42.6001L84.54 42.5301L84.26 42.4001L84.13 42.3401L83.81 42.1901L83.69 42.1301L83.45 42.0001L83.83 41.7201L83.99 41.6101L84.13 41.5101L84.88 41.0001L85.12 40.8401C85.62 40.5101 86.23 40.1301 86.94 39.7101L87.36 39.4601L87.58 39.3301L87.94 39.1301C88.94 38.5401 90.16 37.9001 91.48 37.2601L92.08 36.9701L93.33 36.4001L93.98 36.1201L94.65 35.8301C95.55 35.4601 96.49 35.0901 97.47 34.7401L98.2 34.4901L99 34.2001L99.73 33.9701C100.46 33.7501 101.19 33.5401 101.94 33.3501C102.15 33.3001 102.35 33.2401 102.56 33.2001C103.56 32.9501 104.62 32.7301 105.69 32.5501L106.29 32.4501L107.04 32.3401C107.353 32.2867 107.663 32.2467 107.97 32.2201L108.47 32.1601H108.92L109.63 32.1001L110.34 32.0501C110.82 32.0501 111.34 32.0501 111.8 31.9901H111.72H111.62C111.39 31.9901 110.92 31.8801 110.25 31.8201H109.97H109.63L108.91 31.7701H108.07H107.19C104.216 31.7895 101.253 32.1247 98.35 32.7701C93.2701 33.8838 88.4016 35.8048 83.93 38.4601V38.4601C83.8968 38.4565 83.8632 38.4565 83.83 38.4601L83.29 38.7801C82.65 39.1701 82.02 39.5801 81.37 40.0001C81.37 40.0001 81.37 40.0001 81.37 39.9401C81.37 39.8801 81.43 39.8301 81.47 39.7501C81.51 39.6701 81.47 39.6601 81.56 39.6001C81.65 39.5401 81.67 39.4001 81.73 39.2801C81.7724 39.2238 81.8093 39.1635 81.84 39.1001C82.16 38.5601 82.62 37.8101 83.21 36.9501L83.45 36.6001C83.7233 36.2067 84.0133 35.8067 84.32 35.4001L84.67 34.9401L85.05 34.4601C85.44 33.9701 85.86 33.4601 86.3 32.9801C86.43 32.8401 86.57 32.6801 86.71 32.5401L87.08 32.1401L87.31 31.9101C87.62 31.5901 87.94 31.2801 88.31 30.9701L88.78 30.5401C89.15 30.2101 89.53 29.8901 89.93 29.5401L90.35 29.2101L90.46 29.1301L91.01 28.7301L91.49 28.4001L91.7 28.2601L92.24 27.9301L92.81 27.6001L93.33 27.3201L93.45 27.2601L93.98 27.0001C94.18 26.9101 94.37 26.8201 94.58 26.7401C106.02 21.9501 120.29 26.0701 127.9 21.3101C128 21.1701 128 21.4101 128 21.8301Z" fill="#87C64A"/>
<g opacity="0.1">
<path opacity="0.1" d="M108 47.0001C107.25 47.1901 106.49 47.3501 105.71 47.4801L105.01 47.5901L104.24 47.6901L103.46 47.7601C102.94 47.8001 102.41 47.8301 101.87 47.8501H102.65C104.513 47.8591 106.372 47.685 108.2 47.3301L108 47.0001ZM90.6601 46.3901L89.5401 46.0701L89 45.9201L88.74 45.8401L88.4801 45.7601C88.8501 46.1701 89.1901 46.6001 89.4801 47.0301L89.77 47.4001L90.18 47.9801L90.3701 48.2701C90.9778 49.1401 91.5225 50.0524 92 51.0001C92.07 51.1301 92.1301 51.2601 92.1901 51.4001C92.2193 51.4436 92.2428 51.4906 92.2601 51.5401C92.3301 51.6801 92.39 51.8201 92.45 51.9701C92.51 52.1201 92.58 52.2401 92.63 52.3801C92.68 52.5201 92.7501 52.6701 92.8001 52.8101C92.8501 52.9501 92.94 53.1601 93 53.3301C93.06 53.5001 93.14 53.7001 93.2 53.8801C93.32 54.2501 93.4401 54.6301 93.5501 55.0101C93.6601 55.3901 93.74 55.7001 93.82 56.0601L93.9401 56.5901C94.0401 57.0501 94.1201 57.5201 94.1901 57.9901C94.1901 58.1601 94.25 58.3401 94.27 58.5201C94.29 58.7001 94.27 58.9001 94.34 59.1001C94.41 59.3001 94.34 59.3201 94.34 59.4401C94.34 59.5601 94.34 59.7301 94.34 59.8801V60.3301C94.34 60.4901 94.34 60.6501 94.34 60.8101C94.34 60.9701 94.34 61.3101 94.34 61.5701C94.34 61.8301 94.34 62.0301 94.34 62.2501C94.34 62.4701 94.34 62.8201 94.34 63.1001C94.34 63.3801 94.34 63.4801 94.34 63.6601C94.34 63.8401 94.28 64.2601 94.24 64.5501C94.2 64.8401 94.14 65.3301 94.07 65.7201C94.07 65.8501 94.07 65.9801 94 66.1101C93.8688 66.8082 93.702 67.4991 93.5 68.1801C93.5 68.3501 93.4 68.5201 93.35 68.6901L93.17 69.2501C92.94 69.9301 92.68 70.5901 92.39 71.2501L92.21 71.6501C92.21 71.7701 92.09 71.9001 92.03 72.0201L91.82 72.4501C91.76 72.5601 91.7 72.6801 91.64 72.7801C91.58 72.8801 91.47 73.1101 91.38 73.2701C91.29 73.4301 91.2801 73.4501 91.2201 73.5401C91.1601 73.6301 91.05 73.8501 90.95 74.0001C90.85 74.1501 90.62 74.5301 90.45 74.7901L90.1901 75.1801C89.9501 75.5301 89.7001 75.8701 89.4401 76.1801C89.3501 76.3101 89.2501 76.4301 89.1601 76.5501L88.8001 76.9901L88.43 77.4101L88.0501 77.8301L87.6601 78.2401L87.27 78.6401L86.8601 79.0301C86.0385 79.8117 85.1594 80.5304 84.2301 81.1801L83.77 81.4901C83.62 81.6001 83.4601 81.7001 83.3001 81.8001C83.1401 81.9001 82.69 82.1801 82.38 82.3601L81.88 82.6401C80.162 83.5776 78.3349 84.2998 76.4401 84.7901L75.5 85.0101L74.81 85.1501L74.2601 85.2401H73.93L73.5 85.3001L72.5 85.4101H71.9101H71.31H72.1201C76.6224 85.3703 81.0228 84.0647 84.8184 81.6426C88.614 79.2205 91.6517 75.7795 93.5844 71.7128C95.517 67.6462 96.2668 63.1178 95.7479 58.6453C95.229 54.1727 93.4625 49.9363 90.6501 46.4201L90.6601 46.3901ZM72.1 37.6201H71.2901H71.84H72.39C73.13 37.6901 73.8601 37.7701 74.5801 37.9001L75 38.0001L75.35 38.0701L75.8601 38.1801H75.9401L76.4801 38.3101L77.0501 38.4701L77.6101 38.6401L78.1501 38.8101C78.6701 38.9901 79.15 39.1801 79.7 39.4001L79.88 39.0501C79.921 39.0358 79.9611 39.0191 80 39.0001C77.464 38.0954 74.7926 37.6288 72.1 37.6201ZM31.8601 61.6201C31.8553 51.0849 35.9823 40.9681 43.3548 33.4423C50.7272 25.9165 60.757 21.5822 71.2901 21.3701H70.4701C59.9089 21.5366 49.8367 25.8489 42.427 33.3763C35.0173 40.9037 30.8644 51.0427 30.8644 61.6051C30.8644 72.1676 35.0173 82.3065 42.427 89.8339C49.8367 97.3613 59.9089 101.674 70.4701 101.84H71.25C60.7249 101.62 50.7053 97.2836 43.3411 89.7605C35.977 82.2375 31.8551 72.1275 31.8601 61.6001V61.6201Z" fill="black"/>
<path opacity="0.1" d="M34.3 118.09C44.968 126.139 57.9371 130.552 71.3 130.68H70.48C56.8426 130.718 43.5673 126.293 32.68 118.08C31.2598 117.014 30.2278 115.511 29.7419 113.803C29.2559 112.095 29.3427 110.275 29.989 108.62C30.6353 106.966 31.8055 105.569 33.3208 104.642C34.8361 103.716 36.613 103.311 38.38 103.49C36.7518 103.654 35.2108 104.305 33.9585 105.358C32.7063 106.412 31.8011 107.819 31.3614 109.395C30.9217 110.971 30.9679 112.643 31.494 114.193C32.0201 115.743 33.0015 117.097 34.31 118.08L34.3 118.09Z" fill="black"/>
<path opacity="0.1" d="M104.2 103.5C102.726 103.644 101.32 104.195 100.14 105.09C92.0743 111.172 82.242 114.452 72.1401 114.43H71.3301C81.1649 114.295 90.7003 111.027 98.5501 105.1C100.165 103.875 102.183 103.304 104.2 103.5V103.5Z" fill="black"/>
<path opacity="0.1" d="M34.7101 140C34.7116 137.556 35.6315 135.201 37.2872 133.402C38.943 131.604 41.214 130.493 43.6501 130.29C43.5301 130.29 43.4101 130.29 43.2801 130.29H42.8401C41.5327 130.248 40.2303 130.47 39.0102 130.941C37.7901 131.412 36.6773 132.124 35.7377 133.034C34.7981 133.944 34.051 135.034 33.5408 136.238C33.0306 137.443 32.7677 138.737 32.7677 140.045C32.7677 141.353 33.0306 142.648 33.5408 143.852C34.051 145.057 34.7981 146.146 35.7377 147.056C36.6773 147.966 37.7901 148.678 39.0102 149.149C40.2303 149.621 41.5327 149.842 42.8401 149.8H43.2801H43.6501C41.1984 149.596 38.9146 148.472 37.2566 146.655C35.5986 144.837 34.689 142.46 34.7101 140V140ZM44.4601 134.31C44.1889 134.31 43.9182 134.33 43.6501 134.37H43.9001H44.1201C44.8763 134.561 45.5869 134.901 46.2101 135.37L46.3501 135.48C46.4301 135.55 46.5101 135.61 46.5901 135.69C46.6544 135.738 46.7146 135.792 46.7701 135.85L46.9501 136.03C47.0119 136.089 47.0687 136.152 47.1201 136.22C47.1787 136.279 47.2322 136.342 47.2801 136.41L47.4301 136.61C47.6301 136.876 47.8042 137.161 47.9501 137.46C47.9876 137.535 48.021 137.612 48.0501 137.69C48.1925 138.012 48.303 138.347 48.3801 138.69C48.3858 138.77 48.3858 138.85 48.3801 138.93V139.12V139.33C48.3801 139.54 48.3801 139.75 48.3801 139.97C48.3801 140.19 48.3801 140.41 48.3801 140.62V140.83V141.02C48.3849 141.1 48.3849 141.18 48.3801 141.26C48.303 141.603 48.1925 141.938 48.0501 142.26C48.021 142.339 47.9876 142.415 47.9501 142.49C47.8019 142.788 47.6279 143.073 47.4301 143.34L47.2801 143.54C47.2322 143.608 47.1787 143.671 47.1201 143.73L47.0001 144C46.9452 144.065 46.885 144.125 46.8201 144.18C46.7646 144.238 46.7044 144.292 46.6401 144.34L46.4001 144.54L46.2601 144.65C45.6391 145.123 44.9278 145.463 44.1701 145.65H43.9501H43.7001C43.9689 145.682 44.2393 145.699 44.5101 145.7C45.2573 145.7 45.9972 145.553 46.6875 145.267C47.3779 144.981 48.0051 144.562 48.5335 144.034C49.0619 143.505 49.481 142.878 49.7669 142.188C50.0529 141.497 50.2001 140.757 50.2001 140.01C50.2001 139.263 50.0529 138.523 49.7669 137.833C49.481 137.142 49.0619 136.515 48.5335 135.987C48.0051 135.458 47.3779 135.039 46.6875 134.753C45.9972 134.467 45.2573 134.32 44.5101 134.32L44.4601 134.31Z" fill="#FCFCFC"/>
<path opacity="0.1" d="M90.79 140C90.7939 137.556 91.7145 135.203 93.3699 133.405C95.0252 131.607 97.2948 130.495 99.73 130.29H99.37H98.92C96.3869 130.371 93.9847 131.434 92.2215 133.255C90.4583 135.076 89.4724 137.511 89.4724 140.045C89.4724 142.579 90.4583 145.015 92.2215 146.835C93.9847 148.656 96.3869 149.719 98.92 149.8H99.37H99.73C97.2793 149.593 94.9968 148.469 93.3393 146.652C91.6817 144.835 90.7713 142.459 90.79 140V140ZM100.55 134.31C100.276 134.31 100.002 134.33 99.73 134.37H99.99H100.21C100.964 134.559 101.672 134.899 102.29 135.37L102.44 135.48L102.68 135.69L102.86 135.85L103.04 136.03L103.21 136.22L103.36 136.41C103.419 136.472 103.472 136.539 103.52 136.61C103.717 136.876 103.888 137.161 104.03 137.46C104.071 137.535 104.107 137.611 104.14 137.69C104.282 138.012 104.393 138.347 104.47 138.69C104.47 138.77 104.47 138.84 104.47 138.93C104.475 138.993 104.475 139.057 104.47 139.12C104.475 139.19 104.475 139.26 104.47 139.33C104.485 139.543 104.485 139.757 104.47 139.97C104.485 140.186 104.485 140.404 104.47 140.62C104.475 140.69 104.475 140.76 104.47 140.83C104.475 140.893 104.475 140.957 104.47 141.02C104.47 141.1 104.47 141.18 104.47 141.26C104.393 141.603 104.282 141.938 104.14 142.26C104.107 142.339 104.071 142.415 104.03 142.49C103.885 142.788 103.715 143.072 103.52 143.34C103.472 143.411 103.419 143.478 103.36 143.54L103.21 143.73L103 144L102.82 144.18L102.64 144.34L102.4 144.54L102.25 144.65C101.634 145.124 100.925 145.465 100.17 145.65H99.95H99.69C99.9622 145.682 100.236 145.699 100.51 145.7C102.019 145.7 103.466 145.101 104.533 144.033C105.601 142.966 106.2 141.519 106.2 140.01C106.2 138.501 105.601 137.054 104.533 135.987C103.466 134.92 102.019 134.32 100.51 134.32L100.55 134.31Z" fill="white"/>
<path opacity="0.1" d="M87.0901 42.9002C91.722 44.8877 96.6748 46.0226 101.71 46.2502H100H99.2201C98.7301 46.2502 98.2201 46.1902 97.7701 46.1402H97.3401L96.7501 46.0002H96.5101C95.8201 45.9102 95.1501 45.8002 94.5101 45.6802L93.5101 45.4702L92.9201 45.3402L92.0001 45.0902L91.2901 44.9002L90.6001 44.7102L90.0001 44.5202L89.1101 44.2402L88.2201 44.0002L88.0901 43.9502L87.5301 43.7502C87.2601 43.6602 87.0001 43.5502 86.7501 43.4602L86.4101 43.3202L86.0001 43.1302L85.6201 43.0002C85.567 42.989 85.5162 42.9687 85.4701 42.9402V42.9402L85.2201 42.8402L84.8601 42.6802L84.7001 42.6002L84.5401 42.5302L84.2601 42.4002L84.1301 42.3402L83.8101 42.1902L83.6901 42.1302L83.4501 42.0002L83.8301 41.7202L83.9901 41.6102L84.1301 41.5102L84.8801 41.0002L85.1201 40.8402C85.6201 40.5102 86.2301 40.1302 86.9401 39.7102L87.3601 39.4602L87.5801 39.3302L87.9401 39.1302C88.9401 38.5402 90.1601 37.9002 91.4801 37.2602L92.0801 36.9702L93.3301 36.4002L93.9801 36.1202L94.6501 35.8302C95.5501 35.4602 96.4901 35.0902 97.4701 34.7402L98.2001 34.4902L99.0001 34.2002L99.7301 33.9702C100.46 33.7502 101.19 33.5402 101.94 33.3502C102.15 33.3002 102.35 33.2402 102.56 33.2002C103.56 32.9502 104.62 32.7302 105.69 32.5502L106.29 32.4502L107.04 32.3402C107.353 32.2868 107.663 32.2468 107.97 32.2202L108.47 32.1602H108.92L109.63 32.1002L110.34 32.0502C110.82 32.0502 111.34 32.0502 111.8 31.9902H111.72H111.62C111.39 31.9902 110.92 31.8802 110.25 31.8202H109.97H109.63L108.91 31.7702H108.07H108.81C110.354 31.7464 111.897 31.8602 113.42 32.1102C109.327 32.2211 105.269 32.8941 101.36 34.1102L100.1 34.5102C94.902 36.2541 89.9741 38.7181 85.4601 41.8302L85.0801 42.1102C85.0801 42.1102 85.8101 42.3602 87.0901 42.9002Z" fill="black"/>
<path opacity="0.1" d="M128 21.8302V22.0002C120.11 25.4102 107 22.1202 96.29 26.5902C95.4826 26.9305 94.7006 27.3282 93.95 27.7802L93.12 28.3102C89.4134 30.9833 86.2928 34.3864 83.95 38.3102V38.3102C83.9168 38.3066 83.8833 38.3066 83.85 38.3102L83.31 38.6302C82.67 39.0202 82.04 39.4302 81.39 39.8502C81.39 39.8502 81.39 39.8502 81.39 39.7902C81.39 39.7302 81.45 39.6802 81.49 39.6002C81.53 39.5202 81.49 39.5102 81.58 39.4502C81.67 39.3902 81.69 39.2502 81.75 39.1302C81.7925 39.0739 81.8293 39.0136 81.86 38.9502C82.18 38.4102 82.64 37.6602 83.23 36.8002L83.47 36.4502C83.7433 36.0568 84.0333 35.6568 84.34 35.2502L84.69 34.7902L85.07 34.3102C85.46 33.8202 85.88 33.3102 86.32 32.8302C86.45 32.6902 86.59 32.5302 86.73 32.3902L87.1 31.9902L87.33 31.7602C87.64 31.4402 87.96 31.1302 88.33 30.8202L88.8 30.3902C89.17 30.0602 89.55 29.7402 89.95 29.3902L90.37 29.0602L90.48 28.9802L91.03 28.5802L91.51 28.2502L91.72 28.1102L92.26 27.7802L92.83 27.4502L93.35 27.1702L93.47 27.1102L94 26.8502C94.2 26.7602 94.39 26.6702 94.6 26.5902C106.04 21.8002 120.31 25.9202 127.92 21.1602C128 21.1702 128 21.4102 128 21.8302Z" fill="black"/>
</g>
<path d="M192.35 93.4499L194.52 81.2999H179.76C179.136 81.3099 178.516 81.1925 177.939 80.9549C177.362 80.7173 176.839 80.3645 176.403 79.918C175.967 79.4715 175.626 78.9408 175.402 78.3582C175.178 77.7757 175.075 77.1536 175.1 76.5299C175.1 73.1599 178.35 70.2399 181.72 70.2399H202.72C203.446 70.2201 204.167 70.363 204.831 70.6581C205.494 70.9531 206.084 71.3929 206.555 71.9451C207.027 72.4973 207.369 73.148 207.557 73.8496C207.745 74.5512 207.773 75.2859 207.64 75.9999L204.64 93.3499C204.33 95.5159 203.343 97.5284 201.82 99.0999C195.31 106.1 183.05 110.93 171.44 110.93C154.08 110.93 143.12 101.06 143.12 82.8299C143.12 53.4299 158.42 34.8799 184.78 34.8799C197.91 34.8799 205.61 40.8799 208.87 47.3599C209.289 48.2025 209.511 49.1291 209.52 50.0699C209.523 50.8402 209.373 51.6034 209.079 52.3155C208.786 53.0277 208.354 53.6747 207.81 54.2194C207.265 54.7641 206.618 55.1956 205.906 55.4892C205.193 55.7828 204.43 55.9325 203.66 55.9299C202.785 55.9376 201.92 55.7462 201.13 55.3702C200.34 54.9943 199.646 54.4436 199.1 53.7599C195.52 48.8699 190.75 46.1599 182.83 46.1599C162.83 46.1599 156.25 63.7399 156.25 81.7499C156.25 93.7499 162.25 99.6499 173.39 99.6499C180.74 99.6399 187 97.7899 192.35 93.4499Z" fill="#252525"/>
<path d="M237.47 37.9999L227 96.9999C226.942 97.2931 226.95 97.5957 227.024 97.8854C227.098 98.1751 227.236 98.4445 227.428 98.6738C227.62 98.903 227.86 99.0864 228.133 99.2103C228.405 99.3343 228.701 99.3956 229 99.3899C229.588 99.3564 230.177 99.4495 230.726 99.6629C231.275 99.8762 231.772 100.205 232.183 100.627C232.595 101.048 232.911 101.553 233.11 102.108C233.31 102.662 233.388 103.253 233.34 103.84C233.312 104.718 233.109 105.582 232.744 106.381C232.378 107.18 231.857 107.899 231.211 108.494C230.565 109.09 229.807 109.551 228.981 109.851C228.155 110.151 227.278 110.283 226.4 110.24C219.13 110.24 215.23 106.66 215.23 99.8199C215.237 98.6562 215.344 97.4952 215.55 96.3499L225.76 37.9999C226.057 36.3893 226.896 34.9291 228.139 33.8627C229.382 32.7963 230.953 32.1883 232.59 32.1399C233.326 32.1112 234.059 32.2522 234.733 32.5519C235.406 32.8515 236.001 33.3019 236.473 33.8682C236.945 34.4345 237.28 35.1016 237.453 35.8179C237.625 36.5343 237.631 37.2808 237.47 37.9999V37.9999Z" fill="#252525"/>
<path d="M289.33 77.4999C289.33 94.2099 280.87 110.81 260.25 110.81C248 110.81 240.4 104.73 240.4 91.9299C240.4 75.2299 248.86 58.6299 269.47 58.6299C281.73 58.6299 289.33 64.6999 289.33 77.4999ZM277.39 79.2399C277.39 72.2399 274.14 68.6099 267.74 68.6099C256.46 68.6099 252.34 80.5399 252.34 90.1999C252.34 97.1999 255.59 100.83 261.99 100.83C273.27 100.83 277.39 88.8999 277.39 79.2399Z" fill="#252525"/>
<path d="M343.13 77.4999C343.13 94.2099 334.67 110.81 314.06 110.81C301.8 110.81 294.21 104.73 294.21 91.9299C294.21 75.2299 302.67 58.6299 323.28 58.6299C335.54 58.6299 343.13 64.6999 343.13 77.4999ZM331.2 79.2399C331.2 72.2399 327.95 68.6099 321.55 68.6099C310.26 68.6099 306.14 80.5399 306.14 90.1999C306.14 97.1999 309.4 100.83 315.8 100.83C327.08 100.83 331.2 88.8999 331.2 79.2399Z" fill="#252525"/>
<path d="M364.07 73.3801C364.07 81.3001 387.07 79.7801 387.07 93.5601C387.07 104.19 378.93 110.56 364.29 110.56C354.95 110.56 348.55 105.56 346.39 102.21C345.89 101.436 345.626 100.532 345.63 99.6101C345.629 98.5927 345.926 97.5973 346.484 96.7467C347.042 95.8961 347.837 95.2274 348.771 94.8233C349.704 94.4192 350.736 94.2973 351.738 94.4727C352.74 94.648 353.669 95.113 354.41 95.8101C357.615 98.7065 361.811 100.26 366.13 100.15C371.44 100.15 375.03 98.1501 375.03 95.2701C375.03 87.6701 351.92 89.6201 351.92 74.7601C351.92 63.4801 361.25 58.6001 372.31 58.6001C380.02 58.6001 386.85 62.0701 389.24 65.8701C389.721 66.6601 389.983 67.5638 389.999 68.4886C390.016 69.4134 389.785 70.3258 389.332 71.1322C388.879 71.9385 388.22 72.6097 387.421 73.0769C386.623 73.544 385.715 73.7901 384.79 73.7901C383.417 73.7437 382.107 73.2041 381.1 72.2701C378.323 69.985 374.826 68.7559 371.23 68.8001C366.78 68.8301 364.07 70.4501 364.07 73.3801Z" fill="#252525"/>
<path d="M426.88 96.9199C427.887 96.1754 429.098 95.7598 430.35 95.7299C431.703 95.7299 433 96.2672 433.956 97.2236C434.913 98.1801 435.45 99.4773 435.45 100.83C435.468 101.66 435.279 102.481 434.9 103.219C434.521 103.958 433.964 104.59 433.28 105.06C431.11 106.8 425.03 110.81 414.28 110.81C402.03 110.81 394.21 104.41 394.21 90.6299C394.21 72.0799 405.39 58.6299 422.53 58.6299C433.81 58.6299 440.43 64.6999 440.43 71.9699C440.43 79.7799 436.43 88.8999 405.82 88.8999C405.612 89.8865 405.505 90.8916 405.5 91.8999C405.5 97.9799 409.73 100.26 415.69 100.26C419.661 100.23 423.542 99.0718 426.88 96.9199V96.9199ZM407.24 80.1099C427.31 80.1099 428.83 74.8999 428.83 72.6199C428.83 70.8899 427.31 68.4999 421.89 68.4999C415.27 68.4999 409.85 72.1899 407.24 80.1099Z" fill="#252525"/>
<path d="M462.46 66.0002C463.811 63.8358 465.677 62.0399 467.891 60.773C470.106 59.5061 472.6 58.8077 475.15 58.7402C475.792 58.692 476.438 58.7818 477.042 59.0034C477.647 59.225 478.198 59.5733 478.657 60.0249C479.116 60.4766 479.474 61.0213 479.705 61.6224C479.937 62.2234 480.037 62.8671 480 63.5102C479.914 65.1867 479.196 66.7683 477.989 67.9357C476.783 69.1031 475.179 69.7694 473.5 69.8002C466.01 69.8002 460.91 74.5802 459.61 81.8002L455.61 104.37C455.312 105.98 454.471 107.439 453.229 108.505C451.986 109.571 450.416 110.18 448.78 110.23C445.31 110.23 443.25 107.84 443.9 104.37L450.84 65.1002C451.13 63.4664 451.983 61.9857 453.25 60.9152C454.518 59.8447 456.121 59.2521 457.78 59.2402C461.04 59.2402 462.99 61.8402 462.56 65.1002L462.46 66.0002Z" fill="#252525"/>
<path d="M150.37 136.94C150.318 137.085 150.221 137.211 150.094 137.299C149.966 137.387 149.815 137.433 149.66 137.43C149.528 137.433 149.399 137.387 149.299 137.3C149.199 137.213 149.135 137.091 149.12 136.96L147.87 125.45C147.864 125.37 147.864 125.29 147.87 125.21C147.877 125.052 147.942 124.903 148.053 124.79C148.163 124.678 148.312 124.61 148.469 124.6C148.627 124.59 148.782 124.639 148.906 124.736C149.03 124.834 149.113 124.974 149.14 125.13L150.14 134.68L154.51 125.04C154.56 124.902 154.65 124.783 154.77 124.699C154.89 124.614 155.033 124.569 155.18 124.57C155.318 124.564 155.454 124.612 155.558 124.703C155.662 124.794 155.727 124.922 155.74 125.06L156.74 134.68L161.16 124.98C161.217 124.845 161.318 124.733 161.446 124.664C161.575 124.594 161.724 124.571 161.868 124.598C162.012 124.625 162.142 124.7 162.237 124.812C162.332 124.923 162.386 125.064 162.39 125.21C162.385 125.316 162.362 125.421 162.32 125.52L157 137C156.953 137.131 156.868 137.246 156.756 137.33C156.644 137.414 156.51 137.462 156.37 137.47C156.299 137.48 156.227 137.474 156.158 137.455C156.089 137.435 156.025 137.4 155.971 137.354C155.916 137.308 155.872 137.251 155.84 137.186C155.809 137.122 155.792 137.051 155.79 136.98L154.79 127.49L150.37 136.94Z" fill="#252525"/>
<path d="M175.09 128.55C176.96 128.55 177.84 129.5 177.84 130.55C177.84 132.55 175.9 133.55 171.44 133.55C171.398 133.74 171.378 133.935 171.38 134.13C171.38 135.83 172.19 136.37 173.68 136.37C174.501 136.355 175.297 136.078 175.95 135.58C176.052 135.498 176.179 135.452 176.31 135.45C176.38 135.448 176.45 135.461 176.516 135.487C176.581 135.513 176.641 135.552 176.691 135.601C176.742 135.651 176.781 135.71 176.809 135.775C176.836 135.84 176.85 135.909 176.85 135.98C176.845 136.076 176.817 136.17 176.768 136.254C176.719 136.337 176.651 136.408 176.57 136.46C175.682 137.153 174.576 137.508 173.45 137.46C171.45 137.46 170.19 136.46 170.19 134.27C170.19 130.92 172.05 128.55 175.09 128.55ZM176.64 130.71C176.64 130.17 176.16 129.63 174.91 129.63C174.085 129.643 173.293 129.954 172.679 130.505C172.065 131.056 171.671 131.811 171.57 132.63C175 132.63 176.64 131.9 176.64 130.71V130.71Z" fill="#252525"/>
<path d="M204.17 137.52C203.757 137.544 203.343 137.478 202.958 137.326C202.573 137.174 202.225 136.94 201.94 136.64C201.654 136.34 201.438 135.982 201.305 135.59C201.172 135.198 201.126 134.782 201.17 134.37C201.17 130.97 203.22 128.55 206.17 128.55C207.011 128.529 207.832 128.813 208.48 129.35V129.25C208.502 129.084 208.585 128.932 208.712 128.823C208.839 128.714 209.002 128.656 209.17 128.66C209.245 128.655 209.32 128.667 209.39 128.697C209.459 128.726 209.521 128.771 209.569 128.828C209.618 128.886 209.652 128.954 209.67 129.027C209.687 129.1 209.687 129.177 209.67 129.25L208.33 136.83C208.302 136.994 208.218 137.144 208.092 137.253C207.967 137.363 207.807 137.425 207.64 137.43C207.565 137.434 207.489 137.42 207.42 137.389C207.351 137.359 207.291 137.313 207.243 137.254C207.195 137.196 207.162 137.127 207.146 137.053C207.13 136.979 207.131 136.903 207.15 136.83L207.38 135.63C207.079 136.217 206.617 136.706 206.049 137.041C205.481 137.375 204.829 137.541 204.17 137.52V137.52ZM204.35 136.44C206.4 136.44 207.5 134.52 207.84 132.58L208.19 130.47C207.902 130.182 207.559 129.955 207.181 129.803C206.802 129.652 206.397 129.579 205.99 129.59C203.94 129.59 202.32 131.46 202.32 134.18C202.32 135.41 202.86 136.44 204.35 136.44Z" fill="#252525"/>
<path d="M222 130.08C222.307 129.607 222.731 129.221 223.23 128.959C223.728 128.696 224.286 128.566 224.85 128.58C224.916 128.581 224.98 128.596 225.041 128.622C225.101 128.648 225.155 128.686 225.201 128.734C225.246 128.781 225.282 128.837 225.306 128.898C225.33 128.959 225.341 129.024 225.34 129.09C225.327 129.265 225.25 129.429 225.122 129.55C224.994 129.67 224.826 129.738 224.65 129.74C223.861 129.743 223.103 130.045 222.528 130.585C221.952 131.125 221.603 131.863 221.55 132.65L220.81 136.83C220.78 136.994 220.696 137.142 220.571 137.252C220.445 137.361 220.286 137.424 220.12 137.43C220.044 137.433 219.969 137.419 219.899 137.389C219.83 137.358 219.768 137.312 219.719 137.254C219.67 137.197 219.634 137.128 219.615 137.055C219.597 136.981 219.595 136.904 219.61 136.83L220.96 129.25C220.984 129.087 221.066 128.937 221.191 128.829C221.315 128.721 221.475 128.661 221.64 128.66C221.715 128.655 221.791 128.668 221.86 128.697C221.93 128.727 221.992 128.772 222.041 128.829C222.091 128.886 222.126 128.954 222.145 129.027C222.164 129.1 222.166 129.176 222.15 129.25L222 130.08Z" fill="#252525"/>
<path d="M239.07 128.55C240.94 128.55 241.82 129.5 241.82 130.55C241.82 132.55 239.88 133.55 235.42 133.55C235.378 133.74 235.358 133.935 235.36 134.13C235.36 135.83 236.16 136.37 237.66 136.37C238.481 136.355 239.277 136.078 239.93 135.58C240.032 135.498 240.159 135.452 240.29 135.45C240.36 135.448 240.43 135.461 240.496 135.487C240.561 135.513 240.621 135.552 240.671 135.601C240.722 135.651 240.761 135.71 240.789 135.775C240.816 135.84 240.83 135.909 240.83 135.98C240.825 136.076 240.796 136.17 240.748 136.254C240.699 136.337 240.631 136.408 240.55 136.46C239.662 137.153 238.556 137.508 237.43 137.46C235.38 137.46 234.17 136.46 234.17 134.27C234.17 130.92 236 128.55 239.07 128.55ZM240.62 130.71C240.62 130.17 240.14 129.63 238.89 129.63C238.065 129.643 237.273 129.954 236.659 130.505C236.045 131.056 235.651 131.811 235.55 132.63C239 132.63 240.62 131.9 240.62 130.71Z" fill="#252525"/>
<path d="M265.1 134.33C265.1 131.42 266.48 128.55 269.92 128.55C271.92 128.55 273.14 129.55 273.14 131.74C273.14 134.65 271.76 137.52 268.33 137.52C266.3 137.52 265.1 136.49 265.1 134.33ZM271.93 131.88C271.97 131.579 271.941 131.274 271.845 130.986C271.749 130.699 271.589 130.436 271.377 130.22C271.165 130.003 270.907 129.837 270.622 129.735C270.336 129.633 270.031 129.597 269.73 129.63C267.27 129.63 266.32 131.87 266.32 134.18C266.279 134.481 266.307 134.788 266.402 135.077C266.497 135.366 266.656 135.629 266.868 135.847C267.08 136.065 267.339 136.231 267.626 136.334C267.912 136.437 268.218 136.473 268.52 136.44C271 136.44 271.93 134.2 271.93 131.88V131.88Z" fill="#252525"/>
<path d="M291.27 130.84C291.264 131.175 291.234 131.509 291.18 131.84L290.3 136.84C290.272 137.004 290.188 137.154 290.062 137.263C289.937 137.373 289.777 137.435 289.61 137.44C289.534 137.443 289.459 137.429 289.39 137.399C289.321 137.368 289.259 137.322 289.211 137.264C289.163 137.206 289.128 137.137 289.111 137.064C289.093 136.99 289.093 136.914 289.11 136.84L289.95 132.1C290.002 131.799 290.032 131.495 290.04 131.19C290.04 130.19 289.5 129.62 288.14 129.62C287.776 129.598 287.412 129.649 287.067 129.768C286.723 129.888 286.405 130.074 286.133 130.317C285.861 130.559 285.639 130.853 285.481 131.181C285.322 131.51 285.23 131.866 285.21 132.23L284.39 136.84C284.362 137.004 284.278 137.154 284.152 137.263C284.027 137.373 283.867 137.435 283.7 137.44C283.624 137.445 283.547 137.432 283.477 137.402C283.406 137.373 283.343 137.327 283.294 137.268C283.244 137.21 283.209 137.141 283.191 137.066C283.173 136.992 283.173 136.914 283.19 136.84L284.54 129.26C284.564 129.095 284.647 128.944 284.774 128.835C284.901 128.727 285.063 128.668 285.23 128.67C285.305 128.667 285.379 128.681 285.447 128.711C285.515 128.741 285.576 128.786 285.624 128.843C285.672 128.9 285.707 128.967 285.725 129.039C285.744 129.111 285.745 129.187 285.73 129.26L285.62 129.86C285.927 129.437 286.335 129.096 286.806 128.869C287.277 128.643 287.798 128.536 288.32 128.56C290.49 128.55 291.27 129.57 291.27 130.84Z" fill="#252525"/>
<path d="M304.84 124.59L303 135.24C302.985 135.383 302.985 135.527 303 135.67C302.987 135.756 302.994 135.843 303.02 135.925C303.047 136.007 303.091 136.082 303.151 136.144C303.211 136.206 303.285 136.253 303.366 136.282C303.448 136.311 303.534 136.32 303.62 136.31C303.683 136.309 303.745 136.32 303.803 136.344C303.86 136.368 303.913 136.404 303.956 136.449C303.999 136.494 304.033 136.548 304.054 136.606C304.075 136.665 304.084 136.728 304.08 136.79C304.075 136.964 304.002 137.128 303.876 137.248C303.751 137.367 303.583 137.433 303.41 137.43C303.194 137.462 302.974 137.445 302.766 137.378C302.558 137.311 302.369 137.197 302.212 137.046C302.055 136.894 301.936 136.708 301.863 136.502C301.789 136.297 301.765 136.077 301.79 135.86C301.792 135.652 301.812 135.445 301.85 135.24L303.73 124.59C303.758 124.426 303.842 124.276 303.968 124.167C304.093 124.057 304.253 123.995 304.42 123.99C304.489 123.998 304.555 124.021 304.614 124.056C304.674 124.092 304.725 124.139 304.765 124.196C304.804 124.253 304.832 124.317 304.845 124.385C304.858 124.453 304.856 124.523 304.84 124.59Z" fill="#252525"/>
<path d="M316.78 129.25L316.07 133.25C316.018 133.476 315.991 133.708 315.99 133.94C315.99 134.83 316.42 135.5 317.93 135.5C318.582 135.545 319.227 135.336 319.728 134.917C320.23 134.497 320.549 133.9 320.62 133.25L321.33 129.25C321.36 129.084 321.448 128.934 321.578 128.826C321.708 128.718 321.871 128.659 322.04 128.66C322.114 128.656 322.188 128.669 322.256 128.699C322.324 128.729 322.384 128.775 322.43 128.833C322.477 128.89 322.51 128.958 322.525 129.03C322.541 129.103 322.539 129.178 322.52 129.25L321.07 137.5C320.64 139.92 319.22 141.03 316.63 141.03C315.12 141.03 314.2 140.28 314.2 139.27C314.2 137.97 315.3 137.27 317.47 136.66C315.47 136.55 314.78 135.54 314.78 134.27C314.785 133.934 314.818 133.6 314.88 133.27L315.58 129.27C315.608 129.106 315.692 128.958 315.818 128.85C315.944 128.742 316.104 128.682 316.27 128.68C316.343 128.676 316.417 128.688 316.484 128.717C316.552 128.745 316.613 128.788 316.662 128.842C316.711 128.897 316.747 128.962 316.767 129.033C316.788 129.103 316.792 129.177 316.78 129.25ZM316.85 139.98C317.206 140.024 317.568 139.997 317.913 139.899C318.258 139.801 318.58 139.635 318.86 139.41C319.14 139.185 319.372 138.906 319.542 138.59C319.712 138.274 319.817 137.927 319.85 137.57L320.3 135.35C319.03 137.35 315.43 137.22 315.43 139.09C315.42 139.7 316 140 316.85 140V139.98Z" fill="#252525"/>
<path d="M350.44 128.81C350.501 128.807 350.562 128.817 350.619 128.839C350.676 128.861 350.728 128.895 350.772 128.938C350.815 128.982 350.849 129.033 350.871 129.091C350.893 129.148 350.903 129.209 350.9 129.27C350.9 129.357 350.883 129.444 350.849 129.525C350.815 129.606 350.765 129.679 350.703 129.74C350.641 129.802 350.567 129.85 350.486 129.883C350.404 129.915 350.318 129.931 350.23 129.93H348.54L347.17 137.76C347.057 138.708 346.584 139.576 345.848 140.184C345.113 140.793 344.172 141.096 343.22 141.03C343.158 141.031 343.096 141.02 343.039 140.997C342.981 140.974 342.929 140.939 342.885 140.895C342.841 140.851 342.806 140.799 342.783 140.741C342.76 140.684 342.749 140.622 342.75 140.56C342.75 140.474 342.767 140.389 342.801 140.31C342.834 140.231 342.883 140.16 342.944 140.1C343.006 140.04 343.079 139.994 343.159 139.963C343.239 139.932 343.324 139.917 343.41 139.92C344.044 139.953 344.666 139.74 345.145 139.324C345.625 138.908 345.924 138.322 345.98 137.69L347.34 129.93H346.71C346.648 129.931 346.586 129.92 346.529 129.897C346.471 129.874 346.419 129.839 346.375 129.795C346.331 129.751 346.296 129.699 346.273 129.641C346.25 129.584 346.239 129.522 346.24 129.46C346.245 129.286 346.318 129.12 346.443 128.999C346.568 128.878 346.736 128.81 346.91 128.81H347.55L347.73 127.71C347.84 126.792 348.295 125.95 349.002 125.354C349.709 124.758 350.616 124.453 351.54 124.5C351.602 124.497 351.663 124.507 351.721 124.529C351.778 124.551 351.831 124.585 351.875 124.628C351.919 124.671 351.954 124.723 351.977 124.78C352 124.837 352.011 124.898 352.01 124.96C352.009 125.048 351.99 125.135 351.955 125.216C351.92 125.296 351.87 125.369 351.807 125.431C351.744 125.492 351.669 125.54 351.587 125.573C351.505 125.605 351.418 125.621 351.33 125.62C350.736 125.584 350.151 125.783 349.702 126.174C349.254 126.565 348.976 127.116 348.93 127.71L348.74 128.81H350.44Z" fill="#252525"/>
<path d="M360 134.33C360 131.42 361.38 128.55 364.81 128.55C366.81 128.55 368.04 129.55 368.04 131.74C368.04 134.65 366.66 137.52 363.23 137.52C361.2 137.52 360 136.49 360 134.33ZM366.83 131.88C366.87 131.579 366.841 131.274 366.745 130.986C366.649 130.699 366.489 130.436 366.277 130.22C366.065 130.003 365.807 129.837 365.522 129.735C365.236 129.633 364.931 129.597 364.63 129.63C362.17 129.63 361.21 131.87 361.21 134.18C361.168 134.482 361.196 134.79 361.292 135.079C361.387 135.369 361.548 135.633 361.761 135.851C361.975 136.069 362.235 136.236 362.522 136.338C362.81 136.44 363.117 136.475 363.42 136.44C365.88 136.44 366.83 134.2 366.83 131.88V131.88Z" fill="#252525"/>
<path d="M380.48 130.08C380.787 129.606 381.21 129.22 381.709 128.957C382.208 128.695 382.766 128.565 383.33 128.58C383.396 128.581 383.46 128.595 383.521 128.622C383.581 128.648 383.635 128.686 383.681 128.733C383.726 128.781 383.762 128.837 383.786 128.898C383.81 128.959 383.821 129.024 383.82 129.09C383.808 129.265 383.73 129.429 383.602 129.549C383.474 129.67 383.306 129.738 383.13 129.74C382.341 129.743 381.583 130.045 381.008 130.585C380.432 131.125 380.083 131.863 380.03 132.65L379.28 136.83C379.252 136.994 379.168 137.144 379.043 137.253C378.917 137.363 378.757 137.425 378.59 137.43C378.514 137.433 378.439 137.419 378.37 137.389C378.301 137.358 378.239 137.312 378.191 137.254C378.143 137.196 378.108 137.127 378.091 137.054C378.073 136.98 378.073 136.904 378.09 136.83L379.43 129.25C379.458 129.086 379.542 128.938 379.668 128.83C379.794 128.722 379.954 128.662 380.12 128.66C380.195 128.655 380.271 128.668 380.34 128.697C380.41 128.726 380.472 128.771 380.521 128.828C380.571 128.886 380.606 128.953 380.625 129.026C380.644 129.099 380.646 129.176 380.63 129.25L380.48 130.08Z" fill="#252525"/>
<path d="M408.54 129.25L407.83 133.25C407.786 133.478 407.762 133.709 407.76 133.94C407.76 134.83 408.19 135.5 409.7 135.5C410.352 135.543 410.995 135.333 411.496 134.914C411.996 134.495 412.317 133.899 412.39 133.25L413.09 129.25C413.122 129.085 413.211 128.936 413.34 128.829C413.469 128.721 413.632 128.662 413.8 128.66C413.874 128.657 413.948 128.67 414.016 128.7C414.084 128.73 414.145 128.776 414.192 128.833C414.24 128.89 414.273 128.958 414.29 129.03C414.307 129.102 414.307 129.178 414.29 129.25L412.83 137.5C412.4 139.92 410.99 141.03 408.39 141.03C406.88 141.03 405.97 140.28 405.97 139.27C405.97 137.97 407.07 137.27 409.23 136.66C407.23 136.55 406.55 135.54 406.55 134.27C406.551 133.935 406.581 133.6 406.64 133.27L407.35 129.27C407.376 129.106 407.46 128.956 407.586 128.848C407.713 128.74 407.874 128.681 408.04 128.68C408.112 128.678 408.185 128.691 408.251 128.72C408.318 128.749 408.377 128.792 408.425 128.847C408.473 128.901 408.508 128.966 408.528 129.036C408.548 129.105 408.552 129.179 408.54 129.25V129.25ZM408.62 139.98C408.976 140.026 409.338 139.999 409.684 139.902C410.03 139.805 410.353 139.639 410.633 139.414C410.913 139.189 411.145 138.909 411.314 138.593C411.484 138.276 411.588 137.928 411.62 137.57L412.07 135.35C410.8 137.35 407.2 137.22 407.2 139.09C407.18 139.7 407.8 140 408.62 140V139.98Z" fill="#252525"/>
<path d="M424 134.33C424 131.42 425.38 128.55 428.81 128.55C430.81 128.55 432.04 129.55 432.04 131.74C432.04 134.65 430.66 137.52 427.23 137.52C425.23 137.52 424 136.49 424 134.33ZM430.83 131.88C430.87 131.579 430.841 131.274 430.745 130.986C430.649 130.699 430.489 130.436 430.277 130.22C430.065 130.003 429.807 129.837 429.522 129.735C429.236 129.633 428.931 129.597 428.63 129.63C426.16 129.63 425.21 131.87 425.21 134.18C425.169 134.481 425.197 134.788 425.292 135.077C425.387 135.366 425.546 135.629 425.758 135.847C425.97 136.065 426.229 136.231 426.516 136.334C426.802 136.437 427.108 136.473 427.41 136.44C429.91 136.44 430.87 134.2 430.87 131.88H430.83Z" fill="#252525"/>
<path d="M444.48 129.25L443.62 134.12C443.569 134.346 443.542 134.578 443.54 134.81C443.54 135.71 443.97 136.38 445.48 136.38C445.807 136.422 446.14 136.395 446.457 136.302C446.773 136.209 447.067 136.051 447.32 135.839C447.573 135.627 447.779 135.364 447.925 135.068C448.071 134.773 448.155 134.45 448.17 134.12L449.03 129.25C449.059 129.083 449.146 128.932 449.276 128.824C449.406 128.716 449.571 128.657 449.74 128.66C449.814 128.656 449.888 128.669 449.956 128.699C450.024 128.729 450.084 128.775 450.13 128.833C450.177 128.89 450.21 128.958 450.225 129.03C450.241 129.103 450.239 129.178 450.22 129.25L449.36 134.12C449.05 135.9 448.24 137.52 445.36 137.52C443.16 137.52 442.36 136.47 442.36 135.13C442.365 134.794 442.399 134.46 442.46 134.13L443.31 129.26C443.338 129.096 443.422 128.948 443.548 128.84C443.674 128.732 443.834 128.672 444 128.67C444.072 128.67 444.143 128.686 444.208 128.717C444.273 128.748 444.33 128.792 444.376 128.847C444.422 128.903 444.455 128.968 444.473 129.037C444.491 129.107 444.493 129.179 444.48 129.25Z" fill="#252525"/>
<path opacity="0.1" d="M58.28 148.94H44.28C44.0039 148.94 43.78 149.164 43.78 149.44C43.78 149.716 44.0039 149.94 44.28 149.94H58.28C58.5562 149.94 58.78 149.716 58.78 149.44C58.78 149.164 58.5562 148.94 58.28 148.94Z" fill="#252525"/>
<path opacity="0.1" d="M57.28 144.94H53.28C53.0039 144.94 52.78 145.164 52.78 145.44C52.78 145.716 53.0039 145.94 53.28 145.94H57.28C57.5562 145.94 57.78 145.716 57.78 145.44C57.78 145.164 57.5562 144.94 57.28 144.94Z" fill="#252525"/>
<path opacity="0.1" d="M58.28 146.94H54.28C54.0039 146.94 53.78 147.164 53.78 147.44C53.78 147.716 54.0039 147.94 54.28 147.94H58.28C58.5562 147.94 58.78 147.716 58.78 147.44C58.78 147.164 58.5562 146.94 58.28 146.94Z" fill="#252525"/>
<path opacity="0.1" d="M52.28 146.94H51.28C51.0039 146.94 50.78 147.164 50.78 147.44C50.78 147.716 51.0039 147.94 51.28 147.94H52.28C52.5562 147.94 52.78 147.716 52.78 147.44C52.78 147.164 52.5562 146.94 52.28 146.94Z" fill="#252525"/>
<path opacity="0.1" d="M114.28 148.94H99.28C99.0039 148.94 98.78 149.164 98.78 149.44C98.78 149.716 99.0039 149.94 99.28 149.94H114.28C114.556 149.94 114.78 149.716 114.78 149.44C114.78 149.164 114.556 148.94 114.28 148.94Z" fill="#252525"/>
<path opacity="0.1" d="M113.21 144.94H108.88C108.604 144.94 108.38 145.164 108.38 145.44C108.38 145.716 108.604 145.94 108.88 145.94H113.21C113.486 145.94 113.71 145.716 113.71 145.44C113.71 145.164 113.486 144.94 113.21 144.94Z" fill="#252525"/>
<path opacity="0.1" d="M114.28 146.94H109.95C109.674 146.94 109.45 147.164 109.45 147.44C109.45 147.716 109.674 147.94 109.95 147.94H114.28C114.556 147.94 114.78 147.716 114.78 147.44C114.78 147.164 114.556 146.94 114.28 146.94Z" fill="#252525"/>
<path opacity="0.1" d="M107.28 146.94H106.28C106.004 146.94 105.78 147.164 105.78 147.44C105.78 147.716 106.004 147.94 106.28 147.94H107.28C107.556 147.94 107.78 147.716 107.78 147.44C107.78 147.164 107.556 146.94 107.28 146.94Z" fill="#252525"/>
</svg>
